<?xml version="1.0" standalone="no"?>
<!DOCTYPE svg PUBLIC "-//W3C//DTD SVG 20010904//EN"
 "http://www.w3.org/TR/2001/REC-SVG-20010904/DTD/svg10.dtd">
<svg version="1.0" xmlns="http://www.w3.org/2000/svg"
 width="1472.000000pt" height="1472.000000pt" viewBox="0 0 1472.000000 1472.000000"
 preserveAspectRatio="xMidYMid meet">
<metadata>
Created by potrace 1.14, written by Peter Selinger 2001-2017
</metadata>
<g transform="translate(0.000000,1472.000000) scale(0.100000,-0.100000)"
fill="#000000" stroke="none">
<path d="M7182 11739 c-12 -5 -38 -9 -57 -11 -19 -1 -35 -5 -35 -8 0 -3 -10
-6 -22 -6 -68 -4 -327 -96 -369 -131 -8 -7 -18 -13 -22 -13 -6 0 -125 -68
-142 -82 -5 -4 -39 -29 -75 -55 -72 -53 -149 -123 -219 -197 -25 -27 -54 -58
-63 -68 -10 -10 -18 -22 -18 -28 0 -5 -4 -10 -8 -10 -13 0 -132 -171 -219
-316 -106 -174 -293 -541 -293 -572 0 -5 -6 -15 -14 -21 -8 -7 -17 -27 -20
-46 -4 -19 -11 -35 -16 -35 -6 0 -10 -5 -10 -12 0 -6 -9 -32 -21 -57 -11 -25
-24 -55 -29 -66 -4 -11 -15 -36 -23 -55 -8 -19 -31 -75 -52 -125 -20 -49 -43
-105 -51 -123 -8 -18 -17 -41 -19 -51 -2 -10 -8 -27 -13 -37 -9 -16 -18 -37
-27 -64 -1 -3 -5 -14 -10 -25 -23 -57 -71 -182 -145 -380 -113 -303 -140 -375
-155 -410 -23 -50 -85 -215 -89 -233 -1 -9 -8 -30 -14 -45 -7 -16 -12 -34 -12
-40 0 -7 -7 -22 -15 -33 -8 -12 -11 -24 -8 -28 3 -3 1 -7 -5 -7 -7 -1 -15 -2
-19 -3 -11 -3 -94 -18 -118 -22 -11 -2 -60 -13 -110 -24 -49 -11 -99 -22 -110
-24 -40 -8 -241 -56 -273 -65 -18 -5 -35 -10 -37 -10 -3 -1 -6 -1 -7 -2 -2 0
-10 -2 -18 -4 -8 -1 -51 -12 -96 -24 -44 -12 -87 -24 -95 -25 -8 -2 -21 -6
-29 -9 -8 -4 -26 -9 -40 -11 -42 -8 -239 -68 -500 -152 -8 -3 -16 -5 -17 -5
-3 1 -160 -56 -183 -66 -8 -3 -17 -7 -20 -7 -3 -1 -9 -4 -15 -7 -5 -4 -23 -10
-40 -14 -34 -10 -29 -8 -75 -26 -19 -7 -38 -12 -43 -11 -4 1 -7 -3 -7 -8 0 -6
-6 -10 -13 -10 -8 0 -63 -21 -123 -46 -60 -25 -113 -47 -119 -48 -5 -1 -26
-10 -45 -18 -19 -9 -71 -31 -115 -50 -127 -56 -438 -209 -457 -226 -10 -8 -18
-12 -18 -8 0 4 -15 -1 -32 -12 -18 -11 -51 -30 -73 -42 -22 -12 -84 -48 -138
-79 -53 -31 -105 -60 -115 -66 -31 -18 -97 -59 -107 -67 -5 -5 -50 -34 -100
-65 -49 -32 -92 -60 -95 -63 -3 -3 -36 -28 -75 -55 -38 -27 -91 -65 -116 -85
-25 -19 -60 -46 -79 -60 -18 -14 -38 -29 -44 -35 -6 -5 -38 -32 -71 -60 -33
-27 -73 -61 -90 -75 -56 -48 -321 -315 -370 -374 -28 -33 -58 -68 -67 -78 -10
-10 -18 -22 -18 -27 0 -5 -4 -11 -8 -13 -23 -9 -208 -279 -253 -368 -12 -25
-28 -52 -34 -60 -19 -24 -125 -264 -125 -283 0 -9 -4 -17 -8 -17 -5 0 -9 -6
-9 -12 0 -7 -12 -51 -27 -98 -15 -47 -32 -105 -37 -130 -5 -25 -11 -55 -14
-67 -38 -175 -42 -534 -8 -688 2 -11 6 -29 8 -40 3 -11 7 -31 10 -44 2 -13 12
-49 21 -80 10 -31 18 -58 19 -61 28 -102 121 -304 176 -382 11 -14 19 -31 19
-37 0 -6 4 -11 8 -11 4 0 16 -15 27 -33 17 -30 56 -80 115 -151 48 -58 213
-216 231 -221 11 -4 19 -10 19 -14 0 -4 26 -25 57 -47 32 -21 60 -41 63 -44
18 -21 289 -166 328 -176 9 -2 60 -18 113 -36 54 -18 103 -35 110 -36 85 -22
167 -40 179 -40 8 -1 29 -3 45 -6 145 -28 408 -27 538 0 12 3 38 6 57 9 30 3
56 9 140 29 8 2 42 12 75 22 33 10 62 19 65 19 3 1 12 4 20 7 8 3 38 14 65 23
109 39 365 163 365 177 0 5 9 8 20 8 11 0 20 5 20 10 0 6 4 10 10 10 9 0 159
98 170 111 3 3 12 10 21 15 17 10 56 40 153 119 131 107 384 371 522 545 32
41 62 77 67 78 4 2 7 8 7 13 0 7 75 110 125 172 8 9 12 17 10 17 -3 0 13 25
35 55 22 30 40 59 40 65 0 5 4 10 8 10 5 0 17 16 28 35 10 19 22 35 26 35 5 0
7 3 6 7 -2 5 19 41 45 81 26 40 47 75 47 79 0 3 10 20 23 37 12 17 28 42 35
56 6 14 18 34 24 45 26 40 56 93 108 190 29 55 57 103 62 106 6 3 9 9 9 13 -1
3 10 27 23 54 91 179 177 347 177 349 0 2 23 51 50 110 72 155 93 199 129 278
36 78 240 554 240 559 0 2 6 19 14 37 8 19 14 36 13 39 -1 3 7 19 16 35 9 17
37 84 63 150 51 135 71 182 84 207 6 10 10 23 10 29 0 6 7 25 14 42 8 18 51
129 96 247 44 118 84 222 87 230 3 8 7 20 9 25 1 6 28 78 59 160 32 83 58 155
59 160 1 6 5 16 9 23 5 6 5 12 0 12 -4 0 -3 4 2 8 8 6 40 81 49 117 3 10 9 27
29 80 7 17 12 32 13 35 0 3 6 18 12 33 7 16 12 32 12 36 0 4 9 26 20 49 11 22
21 49 23 59 1 10 6 24 10 31 5 6 5 12 2 12 -3 0 1 10 9 22 9 12 16 29 16 38 0
8 6 27 14 41 7 14 17 39 21 55 11 37 10 34 24 69 7 17 24 59 36 95 25 69 145
384 166 435 7 17 13 35 15 40 1 6 8 24 15 40 7 17 13 32 14 35 1 3 7 18 13 33
7 16 12 35 12 43 0 8 5 14 10 14 6 0 10 6 10 14 0 14 43 121 100 251 5 11 23
54 41 95 17 41 38 91 47 110 9 19 15 38 14 43 -1 4 3 7 9 7 5 0 8 4 5 9 -3 5
1 14 9 21 8 7 15 18 15 24 0 14 143 298 190 376 36 62 102 162 110 170 3 3 21
25 42 50 82 101 194 197 251 216 9 4 17 10 17 15 0 5 5 9 12 9 6 0 31 9 55 21
48 23 168 46 228 44 55 -2 148 -16 160 -23 6 -4 15 -7 20 -8 6 -1 24 -8 40
-15 17 -7 33 -12 37 -11 3 1 12 -5 18 -13 7 -8 17 -15 22 -15 30 0 194 -146
254 -226 16 -22 31 -41 34 -44 4 -3 17 -23 30 -45 13 -22 26 -42 29 -45 4 -3
12 -16 19 -29 8 -13 23 -40 34 -60 11 -20 43 -79 71 -131 27 -52 54 -101 60
-107 5 -7 7 -13 4 -13 -3 0 10 -33 31 -72 20 -40 36 -75 37 -78 0 -3 13 -31
28 -64 15 -32 27 -60 27 -62 0 -2 11 -27 24 -56 14 -30 34 -78 46 -108 12 -30
27 -68 34 -85 29 -66 71 -171 72 -180 1 -5 10 -28 20 -50 10 -22 19 -44 20
-50 3 -12 81 -221 94 -250 7 -18 20 -51 25 -65 1 -3 5 -13 9 -22 4 -9 9 -22
10 -30 2 -7 7 -24 13 -38 6 -14 20 -52 32 -85 12 -33 24 -67 28 -75 3 -8 7
-22 9 -31 2 -9 13 -37 24 -63 11 -26 20 -52 20 -58 0 -7 -25 -8 -72 -3 -40 3
-95 8 -123 10 -27 2 -68 6 -90 9 -73 10 -209 20 -267 20 -32 1 -58 3 -58 6 0
3 -21 6 -47 6 -27 1 -109 5 -183 10 -172 10 -909 11 -1060 0 -63 -4 -146 -9
-185 -11 -38 -2 -70 -5 -70 -5 0 -2 -99 -8 -203 -14 -46 -2 -85 -6 -86 -8 -4
-6 -30 -63 -30 -68 -1 -3 -5 -11 -9 -17 -5 -7 -6 -13 -3 -13 3 0 -8 -31 -24
-70 -16 -38 -26 -70 -23 -70 3 0 1 -6 -4 -12 -6 -7 -15 -26 -21 -43 -6 -16
-27 -75 -47 -130 -20 -55 -52 -143 -71 -195 -19 -52 -37 -102 -41 -110 -3 -8
-7 -19 -9 -25 -1 -5 -17 -46 -33 -90 -17 -44 -31 -82 -31 -84 0 -3 65 2 185
14 77 8 272 22 440 31 132 8 1117 12 1129 6 5 -3 53 -7 105 -8 173 -4 231 -8
231 -17 0 -4 8 -3 19 2 10 6 20 8 23 6 2 -2 38 -7 79 -10 162 -12 294 -23 369
-31 25 -2 70 -6 100 -9 30 -2 71 -6 90 -8 40 -6 112 -14 185 -22 28 -3 59 -7
70 -9 11 -2 49 -7 85 -11 36 -3 72 -8 80 -10 8 -2 35 -7 60 -10 25 -3 56 -7
70 -9 14 -3 59 -10 100 -16 41 -6 86 -14 100 -16 14 -2 41 -6 60 -9 19 -3 46
-7 60 -10 14 -3 43 -8 65 -11 22 -3 47 -8 55 -11 8 -2 38 -9 65 -13 28 -5 64
-11 80 -14 17 -3 46 -9 65 -13 19 -3 42 -8 50 -10 8 -2 29 -5 47 -8 18 -2 37
-6 42 -9 5 -4 24 -9 43 -11 57 -9 72 -12 118 -25 25 -7 53 -14 63 -16 10 -2
26 -5 35 -8 9 -3 28 -7 42 -10 22 -4 99 -21 140 -31 8 -2 38 -11 67 -19 28 -7
54 -11 57 -8 3 3 6 -1 6 -8 0 -7 2 -11 5 -8 5 4 59 -8 205 -49 36 -10 68 -22
72 -28 4 -5 8 -7 8 -3 0 10 454 -133 545 -172 11 -5 94 -38 185 -73 91 -36
188 -75 215 -88 28 -12 52 -23 55 -23 33 -6 515 -252 550 -281 8 -6 22 -15 30
-19 8 -3 33 -17 55 -31 22 -14 47 -28 55 -32 8 -4 17 -9 20 -13 3 -3 41 -30
85 -60 44 -29 86 -60 93 -67 7 -7 17 -13 21 -13 4 0 19 -9 32 -21 13 -11 33
-28 45 -38 12 -10 28 -22 37 -27 43 -25 259 -230 358 -339 82 -92 180 -233
250 -361 36 -65 99 -211 105 -243 3 -13 9 -32 15 -43 5 -10 7 -18 4 -18 -2 0
2 -17 9 -37 27 -71 52 -264 50 -383 -1 -59 -9 -134 -21 -185 -2 -11 -5 -25 -7
-32 -1 -7 -5 -16 -9 -19 -4 -4 -7 -15 -7 -25 0 -19 -43 -113 -79 -174 -55 -91
-157 -199 -250 -265 -52 -36 -170 -99 -196 -104 -5 -1 -15 -4 -20 -8 -11 -7
-125 -38 -165 -45 -89 -16 -304 -10 -390 11 -14 3 -41 9 -60 12 -19 4 -39 10
-45 14 -5 5 -12 8 -15 8 -17 -2 -68 17 -165 63 -38 18 -73 33 -76 33 -9 1
-188 117 -202 130 -6 7 -19 17 -28 22 -52 30 -259 228 -349 334 -30 35 -59 70
-65 76 -5 6 -21 26 -35 44 -14 18 -32 41 -40 50 -8 10 -22 28 -30 40 -8 13
-24 35 -36 49 -41 51 -192 278 -260 391 -38 63 -72 117 -76 118 -5 2 -8 8 -8
12 0 5 -13 31 -28 57 -109 185 -343 644 -455 893 -8 19 -36 79 -61 134 -25 54
-46 100 -46 103 0 2 -9 23 -19 46 -27 61 -54 121 -56 127 -1 3 -9 22 -18 44
-9 21 -17 42 -17 46 0 12 -27 31 -52 35 -12 3 -54 12 -93 21 -38 8 -79 17 -90
19 -11 2 -49 11 -85 20 -36 8 -77 18 -92 20 -15 2 -44 8 -65 14 -37 10 -63 16
-120 26 -16 3 -39 8 -53 12 -14 3 -29 7 -35 9 -20 5 -71 16 -90 19 -11 2 -51
11 -90 20 -64 15 -90 21 -180 39 -16 4 -36 9 -42 11 -18 6 -18 5 18 -80 4 -11
19 -47 32 -80 13 -33 28 -69 32 -80 5 -11 9 -22 10 -25 1 -3 7 -18 13 -33 7
-15 15 -39 18 -52 3 -14 10 -25 14 -25 4 0 11 -12 16 -27 11 -40 25 -78 44
-118 42 -91 67 -154 62 -159 -3 -3 0 -6 6 -6 7 0 11 -3 10 -7 -2 -11 7 -32
100 -237 15 -33 26 -63 25 -68 -2 -4 2 -8 7 -8 6 0 10 -6 10 -13 0 -7 13 -39
29 -72 16 -33 41 -87 56 -120 46 -100 251 -514 303 -610 119 -224 261 -469
273 -473 5 -2 9 -11 9 -21 0 -9 9 -24 20 -34 11 -9 20 -24 20 -32 0 -8 5 -15
10 -15 6 0 10 -5 10 -10 0 -10 136 -219 149 -230 3 -3 13 -17 21 -31 8 -15 24
-39 35 -54 24 -33 186 -246 197 -260 5 -5 18 -21 29 -35 12 -14 35 -43 52 -64
43 -54 320 -331 381 -381 26 -22 53 -44 60 -50 53 -47 255 -186 348 -239 57
-34 231 -120 278 -139 25 -10 57 -25 73 -33 15 -8 27 -13 27 -10 0 2 24 -5 53
-16 108 -42 363 -99 450 -102 20 0 37 -3 37 -6 0 -6 321 -3 390 4 25 2 45 5
45 6 0 1 9 3 20 4 76 11 116 19 160 32 28 8 50 14 50 13 0 -4 134 39 195 63
72 29 185 84 242 117 83 50 124 75 128 80 3 3 32 26 65 51 33 24 70 53 84 65
30 25 170 165 192 193 75 91 204 276 204 293 0 4 3 11 8 15 9 9 56 109 90 189
33 81 88 266 93 315 2 14 6 35 9 47 14 57 20 152 20 313 -1 206 -6 261 -40
435 -15 75 -60 218 -101 320 -30 76 -144 307 -155 315 -3 3 -15 21 -26 40 -38
71 -168 255 -228 324 -5 6 -32 38 -60 71 -41 49 -98 111 -221 238 -11 12 -116
107 -179 162 -48 42 -257 209 -295 236 -19 13 -43 32 -54 42 -11 9 -23 17 -27
17 -4 0 -14 6 -21 13 -22 21 -267 181 -373 243 -55 32 -102 61 -105 64 -3 3
-19 12 -35 21 -75 38 -140 74 -145 79 -6 6 -299 151 -400 198 -126 59 -200 92
-205 92 -2 0 -28 11 -57 24 -68 30 -328 134 -348 138 -8 2 -17 5 -20 8 -3 4
-27 13 -55 22 -43 14 -302 105 -345 121 -8 3 -40 13 -70 22 -30 9 -82 24 -115
35 -123 38 -241 72 -263 76 -13 3 -42 11 -65 18 -37 12 -63 19 -117 31 -8 2
-51 13 -95 25 -44 11 -91 23 -105 26 -14 3 -43 10 -65 16 -22 5 -51 12 -65 15
-13 2 -60 13 -105 23 -107 25 -126 29 -210 45 -66 12 -73 16 -86 47 -8 18 -14
35 -15 38 -1 5 -3 11 -41 110 -14 36 -32 85 -40 110 -8 25 -19 49 -24 55 -5 5
-9 19 -9 31 0 13 -4 25 -9 28 -5 3 -12 18 -16 33 -3 15 -15 46 -26 70 -10 23
-19 46 -19 50 0 4 -25 73 -56 153 -30 80 -57 152 -59 160 -2 8 -23 62 -45 120
-23 58 -54 139 -70 180 -39 103 -153 384 -181 445 -12 28 -23 52 -23 55 -7 36
-246 534 -322 670 -52 93 -127 214 -136 218 -5 2 -8 9 -8 14 0 12 -121 175
-165 223 -15 17 -47 50 -70 75 -23 25 -75 74 -115 110 -41 36 -80 70 -87 77
-7 6 -35 26 -63 44 -27 18 -50 36 -50 41 0 5 -4 7 -9 4 -5 -4 -11 -2 -13 2 -4
10 -121 78 -199 115 -57 27 -216 86 -254 93 -11 2 -31 6 -45 10 -14 3 -38 8
-55 10 -16 3 -47 9 -69 14 -48 11 -355 10 -384 -1z m-2672 -4419 c0 -6 -4 -18
-9 -28 -5 -9 -28 -64 -52 -122 -75 -186 -111 -274 -135 -328 -13 -29 -24 -55
-24 -58 0 -5 -46 -109 -102 -232 -15 -34 -28 -64 -28 -67 0 -5 -44 -100 -121
-263 -27 -56 -49 -106 -49 -111 0 -5 -7 -14 -15 -21 -9 -7 -13 -15 -11 -17 3
-3 -18 -48 -45 -101 -27 -53 -49 -102 -49 -109 0 -7 -4 -13 -9 -13 -5 0 -12
-13 -16 -30 -4 -16 -10 -30 -15 -30 -5 0 -14 -16 -21 -35 -7 -19 -17 -35 -23
-35 -5 0 -7 -3 -3 -6 6 -6 -57 -128 -81 -156 -8 -10 -12 -18 -7 -18 4 0 2 -7
-5 -15 -6 -8 -21 -31 -32 -52 -52 -97 -71 -131 -98 -173 -16 -25 -38 -63 -50
-85 -29 -52 -263 -404 -287 -430 -10 -11 -29 -37 -43 -57 -14 -21 -28 -38 -32
-38 -5 0 -8 -4 -8 -10 0 -5 -12 -22 -27 -39 -16 -16 -39 -44 -53 -62 -37 -51
-306 -319 -319 -319 -6 0 -11 -3 -11 -7 0 -10 -115 -95 -210 -156 -122 -78
-325 -168 -413 -182 -18 -3 -63 -11 -102 -19 -68 -12 -273 -13 -325 -1 -14 3
-36 8 -50 11 -217 42 -454 210 -577 410 -85 138 -126 285 -126 449 1 84 7 170
13 170 1 0 3 9 5 20 7 47 16 84 31 126 8 24 17 53 20 64 5 28 135 285 144 285
4 0 12 12 19 26 13 29 141 198 192 254 55 61 140 150 143 150 2 0 25 21 52 48
72 67 122 112 174 152 25 19 47 37 50 40 9 11 124 96 195 145 39 27 72 52 73
57 2 4 8 8 13 8 7 0 134 78 175 107 5 5 21 14 35 22 77 45 149 86 184 105 22
11 43 26 47 31 4 6 8 6 8 1 0 -5 8 -3 18 5 9 8 49 30 87 49 39 19 72 38 73 43
2 4 9 7 14 7 6 0 67 27 135 60 67 33 125 60 127 60 3 0 37 15 78 34 80 37 119
51 131 48 4 -1 7 2 7 6 0 4 17 14 38 21 20 7 51 19 67 26 126 55 628 232 684
241 8 2 37 10 65 19 28 10 58 18 66 20 8 2 27 8 43 14 15 6 27 8 27 5 0 -3 6
-2 13 3 6 4 17 8 22 10 6 1 35 9 65 18 52 15 66 18 115 30 11 2 43 11 70 19
63 18 65 18 65 6z"/>
</g>
</svg>
