<svg xmlns:inkscape="http://www.inkscape.org/namespaces/inkscape" xmlns:sodipodi="http://sodipodi.sourceforge.net/DTD/sodipodi-0.dtd" xmlns="http://www.w3.org/2000/svg" xmlns:svg="http://www.w3.org/2000/svg" version="1.1" id="svg277" inkscape:version="1.2.1 (9c6d41e4, 2022-07-14)" sodipodi:docname="sigarch.svg" viewBox="71.79 124.15 22.54 13.47">
  <sodipodi:namedview id="namedview279" pagecolor="#505050" bordercolor="#eeeeee" borderopacity="1" inkscape:showpageshadow="0" inkscape:pageopacity="0" inkscape:pagecheckerboard="0" inkscape:deskcolor="#505050" inkscape:document-units="mm" showgrid="false" inkscape:zoom="11.468442" inkscape:cx="282.2528" inkscape:cy="505.73564" inkscape:window-width="1792" inkscape:window-height="1092" inkscape:window-x="0" inkscape:window-y="0" inkscape:window-maximized="0" inkscape:current-layer="layer1"/>
  <defs id="defs274">
    <linearGradient id="SVGID_1_" gradientUnits="userSpaceOnUse" x1="257.10071" y1="142.08949" x2="342.45511" y2="142.08949" gradientTransform="matrix(0.26458333,0,0,0.26458333,3.7633716,93.297294)">
		<stop offset="0" style="stop-color:#ff5f05;stop-opacity:1;" id="stop109"/>

		<stop offset="1" style="stop-color:#005cd6;stop-opacity:1;" id="stop111"/>

	</linearGradient>
  </defs>
  <g inkscape:label="Layer 1" inkscape:groupmode="layer" id="layer1">
    <path class="st1" d="m 86.895454,129.36 c -0.02646,-0.10583 -0.07937,-0.21166 -0.105833,-0.29104 l -0.15875,-0.42333 c -0.370417,-1.00542 -0.926042,-2.51354 -1.481667,-3.30729 -0.529166,-0.74084 -1.27,-1.19063 -2.06375,-1.19063 -0.79375,0 -1.561041,0.42333 -2.06375,1.19063 -0.555625,0.79375 -1.11125,2.30187 -1.481666,3.30729 l -0.105834,0.26458 c -0.05292,0.13229 -0.105833,0.29104 -0.15875,0.44979 -4.312708,0.82021 -7.487708,3.01625 -7.487708,5.50334 0,1.11125 0.687917,2.11666 1.74625,2.54 0.343959,0.13229 0.714375,0.21166 1.058334,0.21166 0.926041,0 1.878541,-0.44979 2.672291,-1.29646 2.407708,-2.54 3.65125,-8.4402 4.868333,-10.18645 0.529167,-0.74084 1.322917,-0.7673 1.852084,0 0.449791,0.635 1.005416,2.16958 1.296458,2.98979 v 0 c -0.714375,-0.0794 -1.481667,-0.13229 -2.248958,-0.13229 -0.502709,0 -1.005417,0.0529 -1.508125,0.0794 l -0.529167,1.42875 c 4.788958,-0.50271 11.932708,1.00542 11.932708,4.33917 0,0.55562 -0.343958,1.03187 -0.873125,1.24354 -0.687916,0.26458 -1.508125,0 -2.196041,-0.74083 -0.79375,-0.84667 -1.481667,-2.2225 -2.06375,-3.59834 l -1.666875,-0.37041 c 0.714375,1.79916 1.5875,3.73062 2.725208,4.9477 1.11125,1.16417 2.513542,1.56105 3.730625,1.0848 1.058333,-0.42334 1.74625,-1.42875 1.74625,-2.54 0.05292,-2.48709 -3.122083,-4.65667 -7.434792,-5.50334 z m -10.636249,6.00604 c -0.714375,0.74084 -1.508125,1.00542 -2.196042,0.74084 -0.529167,-0.21167 -0.873125,-0.71438 -0.873125,-1.24354 0,-1.48167 2.196042,-3.12209 5.503333,-3.9423 -0.661458,1.66688 -1.508125,3.4925 -2.434166,4.445 z" id="path114" inkscape:export-filename="uiuc_SIGARCH_logo.png" inkscape:export-xdpi="546.90472" inkscape:export-ydpi="546.90472" style="fill:url(#SVGID_1_);stroke-width:0.264583"/>
  </g>
</svg>